# xmcd
#
# Track frame offsets: 
#        150
#        17424
#        34568
#        49328
#        62175
#        76081
#        91802
#        105247
#        117087
#        128117
#        140741
#        152726
#        166434
#        180085
#
# Disc length: 2531 seconds
#
# Revision: 0
# Processed by: cddbd v1.5.2PL0 Copyright (c) Steve Scherf et al.
# Submitted via: ExactAudioCopy v0.95b4
#
DISCID=a209e10e
DTITLE=Lowell Fulsom - In A Heavy Bag
DYEAR=2007
DGENRE=Blues
TTITLE0=Look At You Baby
TTITLE1=Why Don't We Do It In The Road
TTITLE2=Sleeper
TTITLE3=Lady In The Rain
TTITLE4=My Baby
TTITLE5=Man On The Run
TTITLE6=Don't Destroy Me
TTITLE7=This Feeling
TTITLE8=Trouble Everywhere
TTITLE9=Cheatin' Woman
TTITLE10=Man Of Motion
TTITLE11=Lonesome Christmas
TTITLE12=Every Second A Fool Is Born
TTITLE13=Stoned To The Bone
EXTD=
EXTT0=
EXTT1=
EXTT2=
EXTT3=
EXTT4=
EXTT5=
EXTT6=
EXTT7=
EXTT8=
EXTT9=
EXTT10=
EXTT11=
EXTT12=
EXTT13=
PLAYORDER=
